<?xml version="1.0" standalone="no"?>
  <svg version="1.1"
      baseProfile="full"
     width="889px"
      height="692px"
     
      xmlns="http://www.w3.org/2000/svg"
      >
      <g xmlns="http://www.w3.org/2000/svg" xmlns:xlink="http://www.w3.org/1999/xlink">
      <g transform="rotate(0 444.50000152587893 346.0700008392334)"><svg id="1691833444401" opacity="1" fill="rgb(10, 20, 30)" viewBox="1.440000057220459 -50.400001525878906 37.80000305175781 57.2400016784668" width="37.80000305175781" preserveAspectRatio="none" height="57.2400016784668" x="425.6" y="317.45"><path id="textPath" d="M25.34-43.42L25.63-43.42C26.78-47.02 27.43-50.26 29.88-49.46C30.31-49.32 30.53-50.04 30.02-50.18C27.07-50.98 26.50-47.30 25.34-43.42ZM19.22-49.75C19.87-49.54 20.45-49.32 21.02-48.96L27.00-48.96C27.36-49.54 27.79-50.11 28.51-50.40L16.92-50.40L16.34-49.82C17.28-50.04 18.22-49.97 19.22-49.75ZM18.94-49.10C21.74-48.38 22.75-45.94 22.68-43.42L23.26-43.42C23.33-46.15 22.18-48.67 19.15-49.54C16.70-50.18 14.40-49.39 13.32-47.23L13.97-47.95C15.12-49.25 16.99-49.61 18.94-49.10ZM16.92-16.56L29.88-16.56L29.88 0L38.52 0L38.52-41.76L30.53-49.68C30.46-49.39 30.17-49.18 29.81-49.25C29.45-49.39 29.02-49.46 28.66-49.32C28.44-49.25 28.30-49.10 28.15-48.96L29.23-48.96L37.08-41.11L37.08-1.44L31.32-1.44L31.32-18.00L15.48-18.00L15.48-1.44L9.72-1.44L9.72-41.11L14.69-46.15C14.83-46.44 14.76-47.09 14.98-47.45C15.12-47.74 15.41-47.95 15.55-48.17C15.84-48.46 16.34-48.89 16.63-48.96C16.92-49.03 17.14-49.10 17.42-49.10C16.63-49.18 15.84-48.96 15.12-48.60C12.82-46.30 10.58-43.99 8.28-41.76L8.28 0L16.92 0ZM16.70-48.74C16.34-48.67 15.48-47.88 15.19-47.38C14.90-46.87 15.19-46.01 14.54-45.72C15.05-45.79 15.41-46.01 15.62-46.44C15.77-46.73 15.98-46.87 16.20-46.80C15.62-47.45 15.91-47.66 16.06-47.88C16.20-47.74 16.63-47.59 16.78-47.81C17.50-48.74 17.86-48.82 19.01-48.67C18.07-49.10 16.99-48.89 16.70-48.74ZM23.54-45.94C23.76-44.14 24.98-42.98 22.90-39.02C24.84-42.05 25.78-45.79 24.26-48.67L23.69-48.67C23.76-47.81 23.47-47.16 23.54-45.94ZM19.15-45.29C19.66-45.14 20.30-45.58 20.81-45.43C21.46-45.29 22.18-44.42 22.32-43.42C22.32-45.14 21.31-46.30 20.38-46.51C19.44-46.80 18.86-46.51 18.79-46.01C18.72-45.72 18.72-45.43 19.15-45.29ZM13.39-44.35L13.18-44.14C13.46-43.78 13.82-43.56 14.26-43.34C15.12-43.13 15.98-43.42 16.20-44.35C16.34-44.78 15.77-44.93 15.62-44.50C15.48-43.92 14.98-43.42 14.33-43.63C13.90-43.78 13.61-43.99 13.39-44.35ZM24.98-43.20C24.84-42.70 24.70-42.19 24.48-41.76L26.28-41.76L28.66-39.38C28.87-39.46 29.59-39.89 29.74-39.74C30.02-39.53 29.38-38.95 29.23-38.74L29.88-38.16L29.88-33.62C30.74-32.18 31.03-30.53 30.67-28.80C30.53-28.01 30.24-27.22 29.88-26.50L29.88-25.20L16.92-25.20L16.92-38.16L18.50-39.82C18.36-40.68 18.58-41.33 19.01-42.05C19.01-42.12 19.08-42.19 19.15-42.19C19.22-42.19 19.30-42.12 19.37-42.05C19.58-41.69 19.73-41.54 20.02-41.26L20.45-41.76L23.76-41.76C23.83-42.19 23.90-42.70 23.90-43.20L19.87-43.20L15.48-38.74L15.48-23.76L31.32-23.76L31.32-38.74L26.86-43.20ZM7.56-42.05L1.44-35.93L1.44 6.84L11.52 6.84L17.64 0.72L7.56 0.72ZM19.15-41.98C17.78-39.60 19.87-38.59 19.15-36.65C19.66-37.51 20.38-38.88 19.58-40.32C19.80-40.03 20.23-38.95 20.09-38.23C20.45-38.81 20.74-39.53 20.59-40.10C20.30-41.11 19.80-40.90 19.15-41.98ZM17.28-33.41C19.37-35.78 22.03-37.73 22.90-40.97C22.90-41.11 22.97-41.26 23.04-41.47L22.39-41.47C22.39-41.33 22.32-41.26 22.32-41.11C21.46-38.09 19.15-36.43 17.28-34.20ZM21.02-36.43C22.97-37.44 24.12-39.38 24.91-41.47L24.70-41.47C23.90-39.38 22.82-37.51 21.02-36.43ZM23.33-39.31C23.26-39.17 23.18-39.02 23.04-38.88C22.97-38.81 22.90-38.74 22.75-38.81C22.68-38.88 22.61-39.02 22.68-39.10C23.04-39.67 23.33-40.32 23.54-41.04L23.11-41.04L23.11-40.90C22.46-38.66 21.02-37.01 19.51-35.42C19.94-35.78 20.38-36.07 20.88-36.29C20.81-36.29 20.81-36.29 20.81-36.36C20.74-36.43 20.81-36.58 20.88-36.65C22.54-37.58 23.54-39.24 24.26-41.04L24.19-41.04C23.98-40.46 23.69-39.89 23.33-39.31ZM20.02-38.02C19.94-37.66 19.73-37.30 19.51-36.94C20.59-38.16 21.60-39.38 22.03-41.04L20.81-41.04L20.52-40.75C20.66-40.61 20.74-40.39 20.81-40.18C20.95-39.53 20.66-38.66 20.23-38.16C20.23-38.02 20.09-38.02 20.02-38.02ZM24.98-41.04C24.55-39.96 23.98-38.88 23.26-38.02C23.83-38.59 24.55-39.02 25.42-39.17C25.85-39.24 26.28-39.31 26.71-39.24L27.72-39.24L25.99-41.04ZM22.61-37.01C24.98-38.38 27.72-36.72 29.59-39.60C27.43-38.16 25.49-40.46 22.61-37.01ZM17.64-34.92C18.07-35.42 18.58-35.93 19.08-36.43L19.01-36.50C18.94-36.50 18.86-36.65 18.94-36.79C19.08-37.22 19.15-37.66 19.01-38.16C18.94-38.45 18.86-38.74 18.72-38.95L17.64-37.87ZM27.22-37.66C25.70-37.30 24.19-37.66 22.82-36.86C25.13-37.22 27.50-36.43 29.16-34.63L29.16-37.87L28.73-38.30C28.30-38.02 27.79-37.80 27.22-37.66ZM22.46-37.22C22.25-37.01 21.96-36.79 21.67-36.58C21.96-36.72 22.18-36.72 22.46-36.79L22.39-36.86C22.32-36.94 22.32-37.01 22.39-37.15C22.39-37.15 22.46-37.15 22.46-37.22ZM29.88-33.12C27.79-37.08 22.75-37.94 19.30-34.99C21.38-36.72 24.77-36.86 27.29-35.14C28.58-34.13 28.87-33.62 28.66-31.97C28.58-31.68 29.16-31.39 29.52-31.39C29.45-31.03 29.45-30.53 28.15-30.46C28.44-30.31 28.66-29.95 28.51-29.52C28.30-28.80 28.37-28.22 28.80-27.72C28.44-28.58 29.59-29.23 29.81-29.95C29.88-30.31 29.95-30.74 29.95-31.18C30.31-29.16 29.74-26.86 28.22-25.49L28.87-25.49C30.67-27.50 31.18-30.74 29.88-33.12ZM28.30-25.92C28.66-26.21 28.94-26.64 29.16-27.00L29.16-28.58C29.02-28.37 28.87-28.08 29.02-27.79C29.02-27.72 29.02-27.58 28.87-27.50C28.80-27.50 28.73-27.50 28.66-27.58C28.15-28.15 28.08-28.87 28.30-29.59C28.37-29.81 28.30-30.17 28.08-30.24C28.01-30.31 27.94-30.38 28.01-30.53C28.01-30.60 28.08-30.67 28.15-30.67C28.44-30.67 28.94-30.74 29.16-30.96L29.16-31.25C28.80-31.32 28.37-31.68 28.44-32.04C28.66-33.62 28.37-33.98 27.14-34.99C25.99-35.78 24.62-36.14 23.18-36.14C22.18-36.14 21.10-35.86 20.16-35.35C20.59-35.50 21.02-35.57 21.46-35.50C21.82-35.35 22.10-35.21 22.32-34.99L22.75-34.49C22.90-34.34 23.11-34.20 23.33-34.06C23.40-34.06 23.47-33.98 23.47-33.84C23.47-33.77 23.40-33.70 23.33-33.70C22.61-33.26 21.96-33.12 21.10-33.19C20.52-33.34 20.02-33.55 19.44-33.70C18.94-33.84 18.50-33.84 18.00-33.62C17.93-33.55 17.86-33.62 17.78-33.62L17.64-33.48L17.64-25.92L20.74-25.92C20.52-26.42 20.45-26.93 20.59-27.50C21.02-29.09 23.18-28.51 22.75-26.93C22.68-26.57 22.68-26.21 22.90-25.92ZM17.93-33.84C19.87-34.56 20.88-32.47 23.26-33.84C22.18-34.49 22.39-34.99 21.38-35.28C20.81-35.42 20.09-35.14 19.51-34.78C20.16-34.92 21.31-34.49 21.60-34.27C20.16-35.06 18.79-34.34 17.93-33.84ZM19.15-34.85C19.08-34.92 19.08-34.99 19.08-34.99L18.43-34.34C18.72-34.49 19.01-34.63 19.30-34.70L19.30-34.78C19.22-34.78 19.15-34.78 19.15-34.85ZM15.12-29.66L15.12-30.46C14.98-29.95 14.83-29.38 14.76-28.80C14.69-28.30 14.69-27.72 14.69-27.07C14.69-28.08 14.83-28.87 15.12-29.66ZM10.44-28.80L14.76-28.80L14.76-29.16L10.44-29.16ZM36.36-29.16L32.04-29.16L32.04-28.80L36.36-28.80ZM20.81-27.43C20.66-26.71 20.81-26.06 21.24-25.49L22.90-25.49C22.54-25.92 22.39-26.42 22.54-27.00C22.90-28.30 21.17-28.73 20.81-27.43ZM10.44-26.28L14.76-26.28L14.76-26.71L10.44-26.71ZM32.04-26.28L36.36-26.28L36.36-26.71L32.04-26.71ZM10.44-23.76L14.76-23.76L14.76-24.26L10.44-24.26ZM32.04-23.76L36.36-23.76L36.36-24.26L32.04-24.26ZM10.44-21.67L36.36-21.67L36.36-22.25L10.44-22.25ZM36.36-20.16L10.44-20.16L10.44-19.37L36.36-19.37ZM14.76-18.00L10.44-18.00L10.44-17.06L14.76-17.06ZM36.36-18.00L32.04-18.00L32.04-17.06L36.36-17.06ZM14.76-15.91L10.44-15.91L10.44-14.76L14.76-14.76ZM36.36-15.91L32.04-15.91L32.04-14.76L36.36-14.76ZM29.16 0.72L29.16-15.84L17.64-15.84L17.64-9.72L23.04-9.72L23.04 6.84L33.12 6.84L39.24 0.72ZM14.76-13.75L10.44-13.75L10.44-12.46L14.76-12.46ZM36.36-13.75L32.04-13.75L32.04-12.46L36.36-12.46ZM14.76-11.59L10.44-11.59L10.44-10.15L14.76-10.15ZM36.36-11.59L32.04-11.59L32.04-10.15L36.36-10.15ZM14.76-9.50L10.44-9.50L10.44-8.06L14.76-8.06ZM36.36-9.50L32.04-9.50L32.04-8.06L36.36-8.06ZM14.76-7.56L10.44-7.56L10.44-5.47L14.76-5.47ZM36.36-7.56L32.04-7.56L32.04-5.47L36.36-5.47ZM10.44-2.16L14.76-2.16L14.76-5.04L10.44-5.04ZM32.04-2.16L36.36-2.16L36.36-5.04L32.04-5.04Z" style="pointer-events: bounding-box; cursor: move;"></path></svg></g>
      </g>
  </svg>