<?xml version="1.0" encoding="UTF-8"?>
<!DOCTYPE svg PUBLIC "-//W3C//DTD SVG 1.1//EN" "http://www.w3.org/Graphics/SVG/1.1/DTD/svg11.dtd">
<svg xmlns="http://www.w3.org/2000/svg" version="1.1" width="459px" height="167px" style="shape-rendering:geometricPrecision; text-rendering:geometricPrecision; image-rendering:optimizeQuality; fill-rule:evenodd; clip-rule:evenodd" xmlns:xlink="http://www.w3.org/1999/xlink">
<g><path d="M 63.5,7.5 C 70.3209,6.3454 77.3209,6.17874 84.5,7C 85.7375,7.23209 86.7375,7.73209 87.5,8.5C 79.8623,7.68689 72.1956,7.35356 64.5,7.5C 64.1667,7.5 63.8333,7.5 63.5,7.5 Z"/></g>
<g><path d="M 63.5,7.5 C 63.8333,7.5 64.1667,7.5 64.5,7.5C 64.5,11.5 64.5,15.5 64.5,19.5C 64.1667,19.5 63.8333,19.5 63.5,19.5C 62.1667,15.5 62.1667,11.5 63.5,7.5 Z"/></g>
<g><path d="M 64.5,7.5 C 72.1956,7.35356 79.8623,7.68689 87.5,8.5C 88.4916,8.32842 89.1583,8.66175 89.5,9.5C 89.9731,10.9063 90.9731,11.573 92.5,11.5C 93.0798,13.7488 94.4131,15.4154 96.5,16.5C 96.427,18.0269 97.0937,19.0269 98.5,19.5C 98.427,21.0269 99.0937,22.0269 100.5,22.5C 101.338,22.8417 101.672,23.5084 101.5,24.5C 101.427,26.0269 102.094,27.0269 103.5,27.5C 105.674,30.5154 107.341,33.8487 108.5,37.5C 108.427,39.0269 109.094,40.0269 110.5,40.5C 111.674,41.5137 112.34,42.847 112.5,44.5C 221.495,46.4979 330.828,47.1646 440.5,46.5C 440.5,50.5 440.5,54.5 440.5,58.5C 436.298,58.1832 432.298,58.5166 428.5,59.5C 428.5,83.8333 428.5,108.167 428.5,132.5C 423.833,132.5 419.167,132.5 414.5,132.5C 413.503,115.675 413.17,98.6749 413.5,81.5C 412.551,80.8476 411.385,80.5143 410,80.5C 407.992,80.3068 406.492,80.9735 405.5,82.5C 405.167,83.5 404.5,84.1667 403.5,84.5C 402.034,85.347 401.2,86.6803 401,88.5C 400.503,90.8098 400.337,93.1432 400.5,95.5C 396.5,95.5 392.5,95.5 388.5,95.5C 388.152,91.2592 386.985,87.2592 385,83.5C 384.184,82.1772 383.017,81.5106 381.5,81.5C 380.903,80.8614 380.07,80.528 379,80.5C 377.301,80.3866 376.134,81.0532 375.5,82.5C 375.5,83.1667 375.167,83.5 374.5,83.5C 373.883,83.6107 373.383,83.944 373,84.5C 372.185,89.3522 372.352,94.0189 373.5,98.5C 373.5,98.8333 373.5,99.1667 373.5,99.5C 373.12,101.698 373.787,103.365 375.5,104.5C 376.338,104.842 376.672,105.508 376.5,106.5C 376.427,108.027 377.094,109.027 378.5,109.5C 379.5,112.5 381.5,114.5 384.5,115.5C 385.035,117.446 386.368,118.446 388.5,118.5C 389.659,120.25 391.326,121.25 393.5,121.5C 394.8,122.827 396.133,124.16 397.5,125.5C 396.253,128.329 394.753,130.995 393,133.5C 391.644,134.38 390.144,134.714 388.5,134.5C 387.508,134.672 386.842,134.338 386.5,133.5C 386.027,132.094 385.027,131.427 383.5,131.5C 383.027,130.094 382.027,129.427 380.5,129.5C 379.738,127.738 378.404,126.738 376.5,126.5C 374.1,123.097 371.1,120.43 367.5,118.5C 367.262,116.596 366.262,115.262 364.5,114.5C 361.723,109.841 359.723,104.841 358.5,99.5C 358.5,94.5 358.5,89.5 358.5,84.5C 359.15,82.5648 359.483,80.5648 359.5,78.5C 359.328,77.5084 359.662,76.8417 360.5,76.5C 363.5,74.1667 366.167,71.5 368.5,68.5C 368.842,67.6618 369.508,67.3284 370.5,67.5C 374.798,66.8005 379.131,66.4672 383.5,66.5C 385.181,68.0075 387.181,69.0075 389.5,69.5C 390.38,73.1133 392.38,74.4467 395.5,73.5C 396.833,72.8333 397.833,71.8333 398.5,70.5C 400.027,70.573 401.027,69.9063 401.5,68.5C 405.49,68.0013 409.49,67.5013 413.5,67C 414.833,64.3333 414.833,61.6667 413.5,59C 385.835,58.5 358.169,58.3334 330.5,58.5C 330.5,65.1667 330.5,71.8333 330.5,78.5C 319.828,78.3335 309.161,78.5002 298.5,79C 296.354,81.3569 296.021,83.8569 297.5,86.5C 298.338,86.8417 298.672,87.5084 298.5,88.5C 298.577,89.7498 299.244,90.5831 300.5,91C 308.833,91.3333 317.167,91.6667 325.5,92C 327.854,92.8471 330.188,93.6805 332.5,94.5C 333.167,95.8333 334.167,96.8333 335.5,97.5C 336.338,97.8417 336.672,98.5084 336.5,99.5C 337.275,104.797 337.608,110.13 337.5,115.5C 335.613,117.789 334.279,120.455 333.5,123.5C 332.167,124.167 331.167,125.167 330.5,126.5C 330.5,127.167 330.167,127.5 329.5,127.5C 326.521,128.654 323.521,129.82 320.5,131C 319.226,131.977 319.226,132.811 320.5,133.5C 320.973,134.906 321.973,135.573 323.5,135.5C 324.035,137.446 325.368,138.446 327.5,138.5C 328.659,140.25 330.326,141.25 332.5,141.5C 333.492,141.328 334.158,141.662 334.5,142.5C 335.429,143.315 336.429,144.148 337.5,145C 335.505,147.157 334.172,149.657 333.5,152.5C 332.33,154.279 330.664,155.279 328.5,155.5C 328.027,154.094 327.027,153.427 325.5,153.5C 325.027,152.094 324.027,151.427 322.5,151.5C 322.027,150.094 321.027,149.427 319.5,149.5C 318.089,147.086 316.089,145.419 313.5,144.5C 310.785,141.118 307.785,138.118 304.5,135.5C 301.727,134.343 298.727,133.676 295.5,133.5C 295.167,133.5 294.833,133.5 294.5,133.5C 294.027,132.094 293.027,131.427 291.5,131.5C 290.5,129.833 289.167,128.5 287.5,127.5C 285.389,121.738 286.389,116.738 290.5,112.5C 294.881,112.372 299.215,112.705 303.5,113.5C 304.492,113.328 305.158,113.662 305.5,114.5C 307.167,116.833 309.167,118.833 311.5,120.5C 313.598,121.484 315.598,121.151 317.5,119.5C 319.027,119.573 320.027,118.906 320.5,117.5C 322.104,116.713 322.771,115.38 322.5,113.5C 323.139,112.903 323.472,112.07 323.5,111C 323.613,109.301 322.947,108.134 321.5,107.5C 321.389,106.883 321.056,106.383 320.5,106C 311.141,105.721 301.808,105.221 292.5,104.5C 289.805,101.474 287.138,98.4744 284.5,95.5C 284.88,93.302 284.213,91.6354 282.5,90.5C 282.334,85.4889 282.501,80.4889 283,75.5C 284.243,72.4241 286.077,69.7574 288.5,67.5C 297.652,66.947 306.652,66.2804 315.5,65.5C 315.5,63.5 315.5,61.5 315.5,59.5C 298.341,58.5033 281.008,58.17 263.5,58.5C 263.5,83.1667 263.5,107.833 263.5,132.5C 258.833,132.5 254.167,132.5 249.5,132.5C 248.502,108.339 248.169,84.0057 248.5,59.5C 228.674,58.5029 208.674,58.1695 188.5,58.5C 188.5,62.8333 188.5,67.1667 188.5,71.5C 190.38,71.7709 191.713,71.1042 192.5,69.5C 193.514,68.3263 194.847,67.6596 196.5,67.5C 202.938,65.9936 209.271,66.3269 215.5,68.5C 215.973,69.9063 216.973,70.573 218.5,70.5C 218.81,72.1436 219.81,73.1436 221.5,73.5C 221.738,75.4044 222.738,76.7377 224.5,77.5C 225.338,77.8417 225.672,78.5084 225.5,79.5C 226.833,86.1667 226.833,92.8333 225.5,99.5C 223.896,100.287 223.229,101.62 223.5,103.5C 221.674,105.147 220.34,107.147 219.5,109.5C 217.833,111.833 215.833,113.833 213.5,115.5C 211.973,115.427 210.973,116.094 210.5,117.5C 208.973,117.427 207.973,118.094 207.5,119.5C 206.325,119.719 205.325,119.386 204.5,118.5C 203.057,115.923 201.39,113.59 199.5,111.5C 198.595,110.036 198.595,108.702 199.5,107.5C 201.027,107.573 202.027,106.906 202.5,105.5C 206.565,103.767 209.232,100.767 210.5,96.5C 210.263,95.209 210.596,94.209 211.5,93.5C 212.634,91.0336 212.801,88.367 212,85.5C 211.617,84.944 211.117,84.6107 210.5,84.5C 210.5,83.1667 209.833,82.5 208.5,82.5C 207.508,80.9735 206.008,80.3068 204,80.5C 201.198,80.3199 199.031,81.3199 197.5,83.5C 197.5,84.1667 197.167,84.5 196.5,84.5C 194.167,84.8333 192.833,86.1667 192.5,88.5C 191.115,89.5736 189.949,90.9069 189,92.5C 188.5,105.829 188.333,119.163 188.5,132.5C 183.833,132.5 179.167,132.5 174.5,132.5C 174.83,125.8 174.497,119.134 173.5,112.5C 167.932,115.725 161.932,117.058 155.5,116.5C 153.102,116.741 151.102,116.074 149.5,114.5C 148.089,112.086 146.089,110.419 143.5,109.5C 141.736,105.634 139.736,101.967 137.5,98.5C 137.667,85.4957 137.5,72.4957 137,59.5C 129.587,58.5192 122.087,58.1858 114.5,58.5C 114.5,83.1667 114.5,107.833 114.5,132.5C 109.833,132.5 105.167,132.5 100.5,132.5C 100.831,107.994 100.498,83.6609 99.5,59.5C 92.3524,58.5084 85.0191,58.175 77.5,58.5C 77.5,83.1667 77.5,107.833 77.5,132.5C 72.8333,132.5 68.1667,132.5 63.5,132.5C 63.5,125.833 63.5,119.167 63.5,112.5C 62.209,112.263 61.209,112.596 60.5,113.5C 59.1667,114.167 58.1667,115.167 57.5,116.5C 57.1667,117.5 56.5,118.167 55.5,118.5C 53.5956,118.738 52.2623,119.738 51.5,121.5C 51.1667,122.5 50.5,123.167 49.5,123.5C 47.9731,123.427 46.9731,124.094 46.5,125.5C 46.1667,126.5 45.5,127.167 44.5,127.5C 42.5956,127.738 41.2623,128.738 40.5,130.5C 40.1667,131.5 39.5,132.167 38.5,132.5C 36.5956,132.738 35.2623,133.738 34.5,135.5C 33.5,135.5 32.5,135.5 31.5,135.5C 30.5,135.167 29.8333,134.5 29.5,133.5C 28.5806,130.911 26.914,128.911 24.5,127.5C 25.1667,126.5 25.8333,125.5 26.5,124.5C 28.7488,123.92 30.4154,122.587 31.5,120.5C 33.7488,119.92 35.4154,118.587 36.5,116.5C 38.0174,116.489 39.1841,115.823 40,114.5C 40.5281,113.184 40.0281,112.517 38.5,112.5C 37.209,112.737 36.209,112.404 35.5,111.5C 34.4154,109.413 32.7488,108.08 30.5,107.5C 30.5,106.167 29.8333,105.5 28.5,105.5C 27.7206,102.455 26.3873,99.7886 24.5,97.5C 23.5988,84.5255 23.2655,71.5255 23.5,58.5C 19.1667,58.5 14.8333,58.5 10.5,58.5C 10.1832,54.2984 10.5166,50.2984 11.5,46.5C 41.1667,46.5 70.8333,46.5 100.5,46.5C 100.771,44.6203 100.104,43.287 98.5,42.5C 97.5903,39.0078 95.9236,36.0078 93.5,33.5C 93.1551,30.8021 91.8218,28.8021 89.5,27.5C 88.5,24.5 86.5,22.5 83.5,21.5C 83.0825,20.7784 82.4158,20.2784 81.5,20C 75.8431,19.5006 70.1764,19.3339 64.5,19.5C 64.5,15.5 64.5,11.5 64.5,7.5 Z M 38.5,59.5 C 46.1667,59.5 53.8333,59.5 61.5,59.5C 61.5,71.1667 61.5,82.8333 61.5,94.5C 59.8333,95.5 58.5,96.8333 57.5,98.5C 56.5084,98.3284 55.8417,98.6618 55.5,99.5C 49.8006,101.547 44.8006,100.547 40.5,96.5C 40.7373,95.209 40.404,94.209 39.5,93.5C 38.6437,82.1898 38.3104,70.8565 38.5,59.5 Z M 173.5,59.5 C 173.5,70.8333 173.5,82.1667 173.5,93.5C 171.5,96.1667 169.167,98.5 166.5,100.5C 165.508,100.328 164.842,100.662 164.5,101.5C 161.763,101.599 159.096,101.265 156.5,100.5C 156.167,99.5 155.5,98.8333 154.5,98.5C 154.125,96.3024 153.458,94.3024 152.5,92.5C 152.5,92.1667 152.5,91.8333 152.5,91.5C 152.5,80.8333 152.5,70.1667 152.5,59.5C 159.5,59.5 166.5,59.5 173.5,59.5 Z"/></g>
<g><path d="M 89.5,9.5 C 91.0269,9.42702 92.0269,10.0937 92.5,11.5C 90.9731,11.573 89.9731,10.9063 89.5,9.5 Z"/></g>
<g><path d="M 92.5,11.5 C 94.5869,12.5846 95.9202,14.2512 96.5,16.5C 94.4131,15.4154 93.0798,13.7488 92.5,11.5 Z"/></g>
<g><path d="M 96.5,16.5 C 97.9063,16.9731 98.573,17.9731 98.5,19.5C 97.0937,19.0269 96.427,18.0269 96.5,16.5 Z"/></g>
<g><path d="M 63.5,19.5 C 63.8333,19.5 64.1667,19.5 64.5,19.5C 70.1764,19.3339 75.8431,19.5006 81.5,20C 82.4158,20.2784 83.0825,20.7784 83.5,21.5C 76.6858,20.9479 70.0191,20.2812 63.5,19.5 Z"/></g>
<g><path d="M 83.5,21.5 C 86.5,22.5 88.5,24.5 89.5,27.5C 87.1667,25.8333 85.1667,23.8333 83.5,21.5 Z"/></g>
<g><path d="M 98.5,19.5 C 99.9063,19.9731 100.573,20.9731 100.5,22.5C 99.0937,22.0269 98.427,21.0269 98.5,19.5 Z"/></g>
<g><path d="M 101.5,24.5 C 102.906,24.9731 103.573,25.9731 103.5,27.5C 102.094,27.0269 101.427,26.0269 101.5,24.5 Z"/></g>
<g><path d="M 89.5,27.5 C 91.8218,28.8021 93.1551,30.8021 93.5,33.5C 91.6736,31.8525 90.3403,29.8525 89.5,27.5 Z"/></g>
<g><path d="M 93.5,33.5 C 95.9236,36.0078 97.5903,39.0078 98.5,42.5C 96.0764,39.9922 94.4097,36.9922 93.5,33.5 Z"/></g>
<g><path d="M 108.5,37.5 C 109.906,37.9731 110.573,38.9731 110.5,40.5C 109.094,40.0269 108.427,39.0269 108.5,37.5 Z"/></g>
<g><path d="M 98.5,42.5 C 100.104,43.287 100.771,44.6203 100.5,46.5C 70.8333,46.5 41.1667,46.5 11.5,46.5C 11.5,46.1667 11.5,45.8333 11.5,45.5C 40.8352,45.6666 70.1686,45.5 99.5,45C 98.7476,44.3292 98.4142,43.4959 98.5,42.5 Z"/></g>
<g><path d="M 112.5,44.5 C 222.097,45.3312 331.764,45.8312 441.5,46C 442.629,50.0785 442.796,54.2452 442,58.5C 437.934,59.4637 433.767,59.797 429.5,59.5C 429.167,59.5 428.833,59.5 428.5,59.5C 432.298,58.5166 436.298,58.1832 440.5,58.5C 440.5,54.5 440.5,50.5 440.5,46.5C 330.828,47.1646 221.495,46.4979 112.5,44.5 Z"/></g>
<g><path d="M 248.5,59.5 C 248.167,59.5 247.833,59.5 247.5,59.5C 228.167,59.5 208.833,59.5 189.5,59.5C 189.335,63.1817 189.501,66.8484 190,70.5C 190.671,69.7476 191.504,69.4142 192.5,69.5C 191.713,71.1042 190.38,71.7709 188.5,71.5C 188.5,67.1667 188.5,62.8333 188.5,58.5C 208.674,58.1695 228.674,58.5029 248.5,59.5 Z"/></g>
<g><path d="M 401.5,68.5 C 404.845,66.783 408.511,66.1164 412.5,66.5C 412.5,64.1667 412.5,61.8333 412.5,59.5C 385.5,59.5 358.5,59.5 331.5,59.5C 331.5,66.1667 331.5,72.8333 331.5,79.5C 320.828,79.3335 310.161,79.5002 299.5,80C 297.771,81.7889 297.104,83.9556 297.5,86.5C 296.021,83.8569 296.354,81.3569 298.5,79C 309.161,78.5002 319.828,78.3335 330.5,78.5C 330.5,71.8333 330.5,65.1667 330.5,58.5C 358.169,58.3334 385.835,58.5 413.5,59C 414.833,61.6667 414.833,64.3333 413.5,67C 409.49,67.5013 405.49,68.0013 401.5,68.5 Z"/></g>
<g><path d="M 11.5,45.5 C 11.5,45.8333 11.5,46.1667 11.5,46.5C 10.5166,50.2984 10.1832,54.2984 10.5,58.5C 14.8333,58.5 19.1667,58.5 23.5,58.5C 23.2655,71.5255 23.5988,84.5255 24.5,97.5C 23.71,96.3915 23.21,95.0581 23,93.5C 22.5001,82.1716 22.3335,70.8382 22.5,59.5C 18.1667,59.5 13.8333,59.5 9.5,59.5C 8.8969,54.3814 9.56356,49.7147 11.5,45.5 Z"/></g>
<g><path d="M 38.5,59.5 C 46.3159,58.5076 54.3159,58.1743 62.5,58.5C 62.5,70.5 62.5,82.5 62.5,94.5C 62.1667,94.5 61.8333,94.5 61.5,94.5C 61.5,82.8333 61.5,71.1667 61.5,59.5C 53.8333,59.5 46.1667,59.5 38.5,59.5 Z"/></g>
<g><path d="M 99.5,59.5 C 99.5,83.8333 99.5,108.167 99.5,132.5C 98.5024,108.339 98.169,84.0057 98.5,59.5C 91.8333,59.5 85.1667,59.5 78.5,59.5C 78.5,84.1667 78.5,108.833 78.5,133.5C 72.9738,133.821 67.6405,133.488 62.5,132.5C 62.8333,132.5 63.1667,132.5 63.5,132.5C 68.1667,132.5 72.8333,132.5 77.5,132.5C 77.5,107.833 77.5,83.1667 77.5,58.5C 85.0191,58.175 92.3524,58.5084 99.5,59.5 Z"/></g>
<g><path d="M 137.5,98.5 C 136.691,96.7078 136.191,94.7078 136,92.5C 135.5,81.505 135.333,70.505 135.5,59.5C 128.833,59.5 122.167,59.5 115.5,59.5C 115.831,84.339 115.498,109.006 114.5,133.5C 114.5,133.167 114.5,132.833 114.5,132.5C 114.5,107.833 114.5,83.1667 114.5,58.5C 122.087,58.1858 129.587,58.5192 137,59.5C 137.5,72.4957 137.667,85.4957 137.5,98.5 Z"/></g>
<g><path d="M 173.5,59.5 C 166.5,59.5 159.5,59.5 152.5,59.5C 152.5,70.1667 152.5,80.8333 152.5,91.5C 151.505,80.6794 151.172,69.6794 151.5,58.5C 159.019,58.175 166.352,58.5084 173.5,59.5 Z"/></g>
<g><path d="M 247.5,59.5 C 247.833,59.5 248.167,59.5 248.5,59.5C 248.169,84.0057 248.502,108.339 249.5,132.5C 249.5,132.833 249.5,133.167 249.5,133.5C 247.51,109.189 246.843,84.5226 247.5,59.5 Z"/></g>
<g><path d="M 315.5,59.5 C 298.5,59.5 281.5,59.5 264.5,59.5C 264.5,84.1667 264.5,108.833 264.5,133.5C 259.5,133.5 254.5,133.5 249.5,133.5C 249.5,133.167 249.5,132.833 249.5,132.5C 254.167,132.5 258.833,132.5 263.5,132.5C 263.5,107.833 263.5,83.1667 263.5,58.5C 281.008,58.17 298.341,58.5033 315.5,59.5 Z"/></g>
<g><path d="M 215.5,68.5 C 209.271,66.3269 202.938,65.9936 196.5,67.5C 199.017,66.027 201.85,65.3603 205,65.5C 208.976,65.2185 212.476,66.2185 215.5,68.5 Z"/></g>
<g><path d="M 315.5,65.5 C 306.652,66.2804 297.652,66.947 288.5,67.5C 289.263,66.7321 290.263,66.2321 291.5,66C 299.493,65.5003 307.493,65.3336 315.5,65.5 Z"/></g>
<g><path d="M 383.5,66.5 C 379.131,66.4672 374.798,66.8005 370.5,67.5C 372.848,66.0483 375.514,65.3817 378.5,65.5C 380.369,65.5068 382.036,65.8401 383.5,66.5 Z"/></g>
<g><path d="M 383.5,66.5 C 386.089,66.461 388.089,67.461 389.5,69.5C 387.181,69.0075 385.181,68.0075 383.5,66.5 Z"/></g>
<g><path d="M 288.5,67.5 C 286.077,69.7574 284.243,72.4241 283,75.5C 282.501,80.4889 282.334,85.4889 282.5,90.5C 280.118,85.0253 279.952,79.3587 282,73.5C 283.406,70.5914 285.572,68.5914 288.5,67.5 Z"/></g>
<g><path d="M 215.5,68.5 C 217.027,68.427 218.027,69.0937 218.5,70.5C 216.973,70.573 215.973,69.9063 215.5,68.5 Z"/></g>
<g><path d="M 401.5,68.5 C 401.027,69.9063 400.027,70.573 398.5,70.5C 398.973,69.0937 399.973,68.427 401.5,68.5 Z"/></g>
<g><path d="M 389.5,69.5 C 391.246,71.2516 393.246,72.5849 395.5,73.5C 392.38,74.4467 390.38,73.1133 389.5,69.5 Z"/></g>
<g><path d="M 218.5,70.5 C 220.19,70.8564 221.19,71.8564 221.5,73.5C 219.81,73.1436 218.81,72.1436 218.5,70.5 Z"/></g>
<g><path d="M 368.5,68.5 C 366.167,71.5 363.5,74.1667 360.5,76.5C 362.167,72.8333 364.833,70.1667 368.5,68.5 Z"/></g>
<g><path d="M 398.5,70.5 C 397.833,71.8333 396.833,72.8333 395.5,73.5C 395.5,71.5 396.5,70.5 398.5,70.5 Z"/></g>
<g><path d="M 221.5,73.5 C 223.262,74.2623 224.262,75.5956 224.5,77.5C 222.738,76.7377 221.738,75.4044 221.5,73.5 Z"/></g>
<g><path d="M 208.5,82.5 C 204.692,81.1268 201.026,81.4602 197.5,83.5C 199.031,81.3199 201.198,80.3199 204,80.5C 206.008,80.3068 207.508,80.9735 208.5,82.5 Z"/></g>
<g><path d="M 381.5,81.5 C 379.435,81.5172 377.435,81.8505 375.5,82.5C 376.134,81.0532 377.301,80.3866 379,80.5C 380.07,80.528 380.903,80.8614 381.5,81.5 Z"/></g>
<g><path d="M 413.5,81.5 C 413.167,81.5 412.833,81.5 412.5,81.5C 410.097,81.448 407.764,81.7814 405.5,82.5C 406.492,80.9735 407.992,80.3068 410,80.5C 411.385,80.5143 412.551,80.8476 413.5,81.5 Z"/></g>
<g><path d="M 208.5,82.5 C 209.833,82.5 210.5,83.1667 210.5,84.5C 209.5,84.1667 208.833,83.5 208.5,82.5 Z"/></g>
<g><path d="M 412.5,81.5 C 412.833,81.5 413.167,81.5 413.5,81.5C 413.17,98.6749 413.503,115.675 414.5,132.5C 414.5,132.833 414.5,133.167 414.5,133.5C 412.514,116.532 411.847,99.1989 412.5,81.5 Z"/></g>
<g><path d="M 359.5,78.5 C 359.483,80.5648 359.15,82.5648 358.5,84.5C 358.167,84.5 357.833,84.5 357.5,84.5C 357.259,82.1016 357.926,80.1016 359.5,78.5 Z"/></g>
<g><path d="M 225.5,79.5 C 227.019,82.5256 227.685,85.8589 227.5,89.5C 227.685,93.1411 227.019,96.4744 225.5,99.5C 226.833,92.8333 226.833,86.1667 225.5,79.5 Z"/></g>
<g><path d="M 196.5,84.5 C 195.5,86.1667 194.167,87.5 192.5,88.5C 192.833,86.1667 194.167,84.8333 196.5,84.5 Z"/></g>
<g><path d="M 357.5,84.5 C 357.833,84.5 358.167,84.5 358.5,84.5C 358.5,89.5 358.5,94.5 358.5,99.5C 358.167,99.5 357.833,99.5 357.5,99.5C 356.167,94.5 356.167,89.5 357.5,84.5 Z"/></g>
<g><path d="M 210.5,84.5 C 211.117,84.6107 211.617,84.944 212,85.5C 212.801,88.367 212.634,91.0336 211.5,93.5C 211.492,90.4552 211.159,87.4552 210.5,84.5 Z"/></g>
<g><path d="M 298.5,88.5 C 299.473,88.9867 300.473,89.4867 301.5,90C 309.833,90.3333 318.167,90.6667 326.5,91C 329.025,91.4238 331.025,92.5905 332.5,94.5C 330.188,93.6805 327.854,92.8471 325.5,92C 317.167,91.6667 308.833,91.3333 300.5,91C 299.244,90.5831 298.577,89.7498 298.5,88.5 Z"/></g>
<g><path d="M 374.5,83.5 C 373.608,88.4376 373.274,93.4376 373.5,98.5C 372.352,94.0189 372.185,89.3522 373,84.5C 373.383,83.944 373.883,83.6107 374.5,83.5 Z"/></g>
<g><path d="M 38.5,59.5 C 38.3104,70.8565 38.6437,82.1898 39.5,93.5C 38.7321,92.7375 38.2321,91.7375 38,90.5C 37.1748,79.9917 37.3415,69.6584 38.5,59.5 Z"/></g>
<g><path d="M 282.5,90.5 C 284.213,91.6354 284.88,93.302 284.5,95.5C 283.069,94.2196 282.402,92.5529 282.5,90.5 Z"/></g>
<g><path d="M 332.5,94.5 C 334.5,94.5 335.5,95.5 335.5,97.5C 334.167,96.8333 333.167,95.8333 332.5,94.5 Z"/></g>
<g><path d="M 61.5,94.5 C 61.8333,94.5 62.1667,94.5 62.5,94.5C 61.4154,96.5869 59.7488,97.9202 57.5,98.5C 58.5,96.8333 59.8333,95.5 61.5,94.5 Z"/></g>
<g><path d="M 381.5,81.5 C 383.017,81.5106 384.184,82.1772 385,83.5C 386.985,87.2592 388.152,91.2592 388.5,95.5C 392.5,95.5 396.5,95.5 400.5,95.5C 400.337,93.1432 400.503,90.8098 401,88.5C 401.2,86.6803 402.034,85.347 403.5,84.5C 401.998,88.3425 401.332,92.3425 401.5,96.5C 396.821,96.6658 392.155,96.4992 387.5,96C 386.956,90.5259 384.956,85.6925 381.5,81.5 Z"/></g>
<g><path d="M 152.5,92.5 C 153.458,94.3024 154.125,96.3024 154.5,98.5C 152.72,97.0101 152.054,95.0101 152.5,92.5 Z"/></g>
<g><path d="M 173.5,93.5 C 172.796,97.5371 170.463,99.8705 166.5,100.5C 169.167,98.5 171.5,96.1667 173.5,93.5 Z"/></g>
<g><path d="M 284.5,95.5 C 287.138,98.4744 289.805,101.474 292.5,104.5C 288.435,102.767 285.768,99.7671 284.5,95.5 Z"/></g>
<g><path d="M 154.5,98.5 C 155.5,98.8333 156.167,99.5 156.5,100.5C 155.167,100.5 154.5,99.8333 154.5,98.5 Z"/></g>
<g><path d="M 40.5,96.5 C 44.8006,100.547 49.8006,101.547 55.5,99.5C 55.0825,100.222 54.4158,100.722 53.5,101C 50.5,101.667 47.5,101.667 44.5,101C 42.249,100.252 40.9156,98.7525 40.5,96.5 Z"/></g>
<g><path d="M 210.5,96.5 C 209.232,100.767 206.565,103.767 202.5,105.5C 205.195,102.474 207.862,99.4744 210.5,96.5 Z"/></g>
<g><path d="M 156.5,100.5 C 159.096,101.265 161.763,101.599 164.5,101.5C 163.551,102.152 162.385,102.486 161,102.5C 158.992,102.693 157.492,102.026 156.5,100.5 Z"/></g>
<g><path d="M 225.5,99.5 C 225.771,101.38 225.104,102.713 223.5,103.5C 223.229,101.62 223.896,100.287 225.5,99.5 Z"/></g>
<g><path d="M 24.5,97.5 C 26.3873,99.7886 27.7206,102.455 28.5,105.5C 26.127,103.421 24.7936,100.754 24.5,97.5 Z"/></g>
<g><path d="M 357.5,99.5 C 357.833,99.5 358.167,99.5 358.5,99.5C 359.723,104.841 361.723,109.841 364.5,114.5C 360.453,110.385 358.119,105.385 357.5,99.5 Z"/></g>
<g><path d="M 373.5,99.5 C 374.537,100.93 375.204,102.597 375.5,104.5C 373.787,103.365 373.12,101.698 373.5,99.5 Z"/></g>
<g><path d="M 137.5,98.5 C 139.736,101.967 141.736,105.634 143.5,109.5C 140.214,106.6 138.214,102.933 137.5,98.5 Z"/></g>
<g><path d="M 28.5,105.5 C 29.8333,105.5 30.5,106.167 30.5,107.5C 29.5,107.167 28.8333,106.5 28.5,105.5 Z"/></g>
<g><path d="M 292.5,104.5 C 301.808,105.221 311.141,105.721 320.5,106C 321.056,106.383 321.389,106.883 321.5,107.5C 312.88,106.724 304.213,106.224 295.5,106C 294.263,105.768 293.263,105.268 292.5,104.5 Z"/></g>
<g><path d="M 202.5,105.5 C 202.027,106.906 201.027,107.573 199.5,107.5C 199.973,106.094 200.973,105.427 202.5,105.5 Z"/></g>
<g><path d="M 30.5,107.5 C 32.7488,108.08 34.4154,109.413 35.5,111.5C 33.2512,110.92 31.5846,109.587 30.5,107.5 Z"/></g>
<g><path d="M 199.5,107.5 C 198.595,108.702 198.595,110.036 199.5,111.5C 196.978,109.998 196.978,108.665 199.5,107.5 Z"/></g>
<g><path d="M 223.5,103.5 C 223.155,106.198 221.822,108.198 219.5,109.5C 220.34,107.147 221.674,105.147 223.5,103.5 Z"/></g>
<g><path d="M 336.5,99.5 C 337.222,99.9175 337.722,100.584 338,101.5C 338.815,106.352 338.648,111.019 337.5,115.5C 337.608,110.13 337.275,104.797 336.5,99.5 Z"/></g>
<g><path d="M 376.5,106.5 C 377.906,106.973 378.573,107.973 378.5,109.5C 377.094,109.027 376.427,108.027 376.5,106.5 Z"/></g>
<g><path d="M 143.5,109.5 C 146.089,110.419 148.089,112.086 149.5,114.5C 146.911,113.581 144.911,111.914 143.5,109.5 Z"/></g>
<g><path d="M 321.5,107.5 C 322.947,108.134 323.613,109.301 323.5,111C 323.472,112.07 323.139,112.903 322.5,113.5C 322.483,111.435 322.15,109.435 321.5,107.5 Z"/></g>
<g><path d="M 378.5,109.5 C 380.833,111.167 382.833,113.167 384.5,115.5C 381.5,114.5 379.5,112.5 378.5,109.5 Z"/></g>
<g><path d="M 303.5,113.5 C 299.215,112.705 294.881,112.372 290.5,112.5C 294.907,110.302 299.241,110.635 303.5,113.5 Z"/></g>
<g><path d="M 60.5,113.5 C 61.209,112.596 62.209,112.263 63.5,112.5C 63.5,119.167 63.5,125.833 63.5,132.5C 63.1667,132.5 62.8333,132.5 62.5,132.5C 63.1229,125.745 62.4563,119.412 60.5,113.5 Z"/></g>
<g><path d="M 290.5,112.5 C 286.389,116.738 285.389,121.738 287.5,127.5C 284.864,124.739 284.031,121.406 285,117.5C 286.076,114.921 287.909,113.254 290.5,112.5 Z"/></g>
<g><path d="M 38.5,112.5 C 40.0281,112.517 40.5281,113.184 40,114.5C 39.1841,115.823 38.0174,116.489 36.5,116.5C 37.6005,115.395 38.2671,114.062 38.5,112.5 Z"/></g>
<g><path d="M 60.5,113.5 C 62.4563,119.412 63.1229,125.745 62.5,132.5C 61.6724,126.681 61.1724,120.681 61,114.5C 60.1841,115.823 59.0174,116.489 57.5,116.5C 58.1667,115.167 59.1667,114.167 60.5,113.5 Z"/></g>
<g><path d="M 305.5,114.5 C 308.5,115.5 310.5,117.5 311.5,120.5C 309.167,118.833 307.167,116.833 305.5,114.5 Z"/></g>
<g><path d="M 364.5,114.5 C 366.262,115.262 367.262,116.596 367.5,118.5C 365.738,117.738 364.738,116.404 364.5,114.5 Z"/></g>
<g><path d="M 213.5,115.5 C 213.027,116.906 212.027,117.573 210.5,117.5C 210.973,116.094 211.973,115.427 213.5,115.5 Z"/></g>
<g><path d="M 322.5,113.5 C 322.771,115.38 322.104,116.713 320.5,117.5C 320.66,115.847 321.326,114.514 322.5,113.5 Z"/></g>
<g><path d="M 384.5,115.5 C 386.23,116.026 387.564,117.026 388.5,118.5C 386.368,118.446 385.035,117.446 384.5,115.5 Z"/></g>
<g><path d="M 210.5,117.5 C 210.027,118.906 209.027,119.573 207.5,119.5C 207.973,118.094 208.973,117.427 210.5,117.5 Z"/></g>
<g><path d="M 320.5,117.5 C 320.027,118.906 319.027,119.573 317.5,119.5C 317.973,118.094 318.973,117.427 320.5,117.5 Z"/></g>
<g><path d="M 367.5,118.5 C 371.1,120.43 374.1,123.097 376.5,126.5C 372.9,124.57 369.9,121.903 367.5,118.5 Z"/></g>
<g><path d="M 36.5,116.5 C 35.4154,118.587 33.7488,119.92 31.5,120.5C 32.5846,118.413 34.2512,117.08 36.5,116.5 Z"/></g>
<g><path d="M 55.5,118.5 C 54.7377,120.262 53.4044,121.262 51.5,121.5C 52.2623,119.738 53.5956,118.738 55.5,118.5 Z"/></g>
<g><path d="M 199.5,111.5 C 201.39,113.59 203.057,115.923 204.5,118.5C 205.325,119.386 206.325,119.719 207.5,119.5C 206.998,121.085 205.998,121.585 204.5,121C 202.171,118.174 200.504,115.008 199.5,111.5 Z"/></g>
<g><path d="M 317.5,119.5 C 315.598,121.151 313.598,121.484 311.5,120.5C 313.435,119.85 315.435,119.517 317.5,119.5 Z"/></g>
<g><path d="M 388.5,118.5 C 390.674,118.75 392.341,119.75 393.5,121.5C 391.326,121.25 389.659,120.25 388.5,118.5 Z"/></g>
<g><path d="M 337.5,115.5 C 337.206,118.754 335.873,121.421 333.5,123.5C 334.279,120.455 335.613,117.789 337.5,115.5 Z"/></g>
<g><path d="M 153.5,123.5 C 155.628,122.371 157.961,122.204 160.5,123C 162.751,123.748 164.084,125.248 164.5,127.5C 161.471,124.6 157.804,123.266 153.5,123.5 Z"/></g>
<g><path d="M 31.5,120.5 C 30.4154,122.587 28.7488,123.92 26.5,124.5C 27.5846,122.413 29.2512,121.08 31.5,120.5 Z"/></g>
<g><path d="M 153.5,123.5 C 157.804,123.266 161.471,124.6 164.5,127.5C 165.833,130.167 165.833,132.833 164.5,135.5C 161.595,138.78 157.929,140.113 153.5,139.5C 153.027,138.094 152.027,137.427 150.5,137.5C 148.422,132.055 149.422,127.389 153.5,123.5 Z"/></g>
<g><path d="M 49.5,123.5 C 49.0269,124.906 48.0269,125.573 46.5,125.5C 46.9731,124.094 47.9731,123.427 49.5,123.5 Z"/></g>
<g><path d="M 153.5,123.5 C 149.422,127.389 148.422,132.055 150.5,137.5C 147.764,135.142 146.93,132.142 148,128.5C 149.076,125.921 150.909,124.254 153.5,123.5 Z"/></g>
<g><path d="M 333.5,123.5 C 333.5,125.5 332.5,126.5 330.5,126.5C 331.167,125.167 332.167,124.167 333.5,123.5 Z"/></g>
<g><path d="M 26.5,124.5 C 25.8333,125.5 25.1667,126.5 24.5,127.5C 23.2819,125.668 23.9486,124.668 26.5,124.5 Z"/></g>
<g><path d="M 376.5,126.5 C 378.404,126.738 379.738,127.738 380.5,129.5C 378.596,129.262 377.262,128.262 376.5,126.5 Z"/></g>
<g><path d="M 24.5,127.5 C 26.914,128.911 28.5806,130.911 29.5,133.5C 27.086,132.089 25.4194,130.089 24.5,127.5 Z"/></g>
<g><path d="M 44.5,127.5 C 43.7377,129.262 42.4044,130.262 40.5,130.5C 41.2623,128.738 42.5956,127.738 44.5,127.5 Z"/></g>
<g><path d="M 287.5,127.5 C 289.167,128.5 290.5,129.833 291.5,131.5C 289.167,131.167 287.833,129.833 287.5,127.5 Z"/></g>
<g><path d="M 329.5,127.5 C 326.638,129.76 323.638,131.76 320.5,133.5C 319.226,132.811 319.226,131.977 320.5,131C 323.521,129.82 326.521,128.654 329.5,127.5 Z"/></g>
<g><path d="M 380.5,129.5 C 382.027,129.427 383.027,130.094 383.5,131.5C 381.973,131.573 380.973,130.906 380.5,129.5 Z"/></g>
<g><path d="M 99.5,59.5 C 100.498,83.6609 100.831,107.994 100.5,132.5C 105.167,132.5 109.833,132.5 114.5,132.5C 114.5,132.833 114.5,133.167 114.5,133.5C 109.305,133.821 104.305,133.487 99.5,132.5C 99.5,108.167 99.5,83.8333 99.5,59.5 Z"/></g>
<g><path d="M 192.5,88.5 C 191.955,90.5932 191.122,92.5932 190,94.5C 189.5,107.496 189.333,120.496 189.5,133.5C 184.167,133.5 178.833,133.5 173.5,133.5C 173.83,127.132 173.496,120.798 172.5,114.5C 166.937,117.354 161.27,118.021 155.5,116.5C 161.932,117.058 167.932,115.725 173.5,112.5C 174.497,119.134 174.83,125.8 174.5,132.5C 179.167,132.5 183.833,132.5 188.5,132.5C 188.333,119.163 188.5,105.829 189,92.5C 189.949,90.9069 191.115,89.5736 192.5,88.5 Z"/></g>
<g><path d="M 291.5,131.5 C 293.027,131.427 294.027,132.094 294.5,133.5C 292.973,133.573 291.973,132.906 291.5,131.5 Z"/></g>
<g><path d="M 383.5,131.5 C 385.027,131.427 386.027,132.094 386.5,133.5C 384.973,133.573 383.973,132.906 383.5,131.5 Z"/></g>
<g><path d="M 428.5,59.5 C 428.833,59.5 429.167,59.5 429.5,59.5C 429.5,84.1667 429.5,108.833 429.5,133.5C 424.5,133.5 419.5,133.5 414.5,133.5C 414.5,133.167 414.5,132.833 414.5,132.5C 419.167,132.5 423.833,132.5 428.5,132.5C 428.5,108.167 428.5,83.8333 428.5,59.5 Z"/></g>
<g><path d="M 38.5,132.5 C 37.7377,134.262 36.4044,135.262 34.5,135.5C 35.2623,133.738 36.5956,132.738 38.5,132.5 Z"/></g>
<g><path d="M 320.5,133.5 C 322.027,133.427 323.027,134.094 323.5,135.5C 321.973,135.573 320.973,134.906 320.5,133.5 Z"/></g>
<g><path d="M 295.5,133.5 C 298.727,133.676 301.727,134.343 304.5,135.5C 301.171,135.785 298.171,135.118 295.5,133.5 Z"/></g>
<g><path d="M 393.5,121.5 C 395.757,121.962 397.757,122.962 399.5,124.5C 397.794,128.75 395.461,132.583 392.5,136C 390.86,136.348 389.527,135.848 388.5,134.5C 390.144,134.714 391.644,134.38 393,133.5C 394.753,130.995 396.253,128.329 397.5,125.5C 396.133,124.16 394.8,122.827 393.5,121.5 Z"/></g>
<g><path d="M 31.5,135.5 C 32.5,135.5 33.5,135.5 34.5,135.5C 33.5,138.167 32.5,138.167 31.5,135.5 Z"/></g>
<g><path d="M 323.5,135.5 C 325.23,136.026 326.564,137.026 327.5,138.5C 325.368,138.446 324.035,137.446 323.5,135.5 Z"/></g>
<g><path d="M 164.5,135.5 C 164.084,137.752 162.751,139.252 160.5,140C 157.961,140.796 155.628,140.629 153.5,139.5C 157.929,140.113 161.595,138.78 164.5,135.5 Z"/></g>
<g><path d="M 304.5,135.5 C 307.785,138.118 310.785,141.118 313.5,144.5C 309.522,142.522 306.522,139.522 304.5,135.5 Z"/></g>
<g><path d="M 150.5,137.5 C 152.027,137.427 153.027,138.094 153.5,139.5C 151.973,139.573 150.973,138.906 150.5,137.5 Z"/></g>
<g><path d="M 327.5,138.5 C 329.674,138.75 331.341,139.75 332.5,141.5C 330.326,141.25 328.659,140.25 327.5,138.5 Z"/></g>
<g><path d="M 313.5,144.5 C 316.089,145.419 318.089,147.086 319.5,149.5C 316.911,148.581 314.911,146.914 313.5,144.5 Z"/></g>
<g><path d="M 334.5,142.5 C 336.635,142.147 337.968,142.98 338.5,145C 337.188,147.807 335.521,150.307 333.5,152.5C 334.172,149.657 335.505,147.157 337.5,145C 336.429,144.148 335.429,143.315 334.5,142.5 Z"/></g>
<g><path d="M 319.5,149.5 C 321.027,149.427 322.027,150.094 322.5,151.5C 320.973,151.573 319.973,150.906 319.5,149.5 Z"/></g>
<g><path d="M 322.5,151.5 C 324.027,151.427 325.027,152.094 325.5,153.5C 323.973,153.573 322.973,152.906 322.5,151.5 Z"/></g>
<g><path d="M 325.5,153.5 C 327.027,153.427 328.027,154.094 328.5,155.5C 326.973,155.573 325.973,154.906 325.5,153.5 Z"/></g>
<g><path d="M 333.5,152.5 C 333.006,155.906 331.339,156.906 328.5,155.5C 330.664,155.279 332.33,154.279 333.5,152.5 Z"/></g>
</svg>
